<svg width="36" height="36" viewBox="0 0 36 36" fill="none" xmlns="http://www.w3.org/2000/svg">
<g clip-path="url(#clip0)">
<path d="M23.4414 34.0484H0V31.8627C0.426484 32.2016 0.971012 32.4073 1.55743 32.4073H21.823L23.4414 34.0484ZM10.1442 1.95166C8.88762 1.95166 7.8671 2.97218 7.8671 4.22878C7.8671 5.0094 8.25932 5.69863 8.86096 6.10988C9.1199 5.39399 9.53877 4.73523 10.0947 4.17928C10.6507 3.62332 11.3094 3.20446 12.0253 2.94552C11.6141 2.34391 10.9248 1.95166 10.1442 1.95166ZM9.49307 7.91866C9.49307 10.3176 11.4389 12.2597 13.8341 12.2597C16.2292 12.2597 18.1751 10.3138 18.1751 7.91866C18.1751 5.51969 16.2292 3.57767 13.8341 3.57767C13.3238 3.57767 12.8364 3.66525 12.3833 3.82518C11.1533 4.26309 10.1747 5.23791 9.74059 6.46786C9.58066 6.92481 9.49307 7.41218 9.49307 7.91866ZM7.13599 13.9084C6.11928 16.1627 3.90309 21.9241 3.29383 23.3749H10.8563C11.0238 22.9636 11.2105 22.5638 11.4161 22.1868C12.1281 20.8579 14.352 20.1991 13.8226 18.3447C13.8188 18.3294 13.8112 18.3142 13.8074 18.2951L15.799 20.1839C15.9474 20.3248 16.1265 20.439 16.3169 20.5114L21.7621 22.5905C21.9449 22.6591 22.1353 22.6933 22.3219 22.6933C22.954 22.6933 23.548 22.3087 23.7841 21.6842C24.0926 20.877 23.6889 19.9706 22.8778 19.6622L18.0646 17.823C17.84 17.7354 17.6343 17.6059 17.4592 17.4422C17.4592 17.4422 13.221 13.4211 13.2172 13.4173C13.0383 13.2459 12.8059 13.1355 12.5623 13.0555C12.5052 13.0365 12.4442 13.0174 12.3833 13.0022C12.3186 12.9832 12.25 12.9641 12.1815 12.9489C11.1229 12.6671 9.94625 12.4272 8.85719 12.5224C8.49925 12.5529 8.10704 12.6443 7.80241 12.8537C7.45204 13.105 7.30734 13.5315 7.13599 13.9084ZM1.55743 31.4552H22.219L24.1992 33.462C24.3857 33.6524 24.6104 33.8009 24.8503 33.8999C25.0864 33.9951 25.3377 34.0484 25.5967 34.0484H34.035C35.1316 34.0484 36.0151 33.1497 35.9999 32.053C35.9808 30.9754 35.0821 30.1225 34.0045 30.1225H26.4192L21.2633 24.8904C20.8634 24.483 20.6273 24.3154 19.9115 24.3154C18.6777 24.3154 1.55743 24.3268 1.55743 24.3268C0.696844 24.3268 0 25.0237 0 25.8843V29.4942V29.8978C0 30.7584 0.696844 31.4552 1.55743 31.4552ZM33.1667 24.2735C33.1667 21.787 31.1486 19.7688 28.662 19.7688C26.1754 19.7688 24.1573 21.787 24.1573 24.2735C24.1573 26.7601 26.1754 28.7783 28.662 28.7783C31.1486 28.7783 33.1667 26.7639 33.1667 24.2735Z" fill="#7C875D"/>
</g>
<defs>
<clipPath id="clip0">
<rect width="36" height="36" fill="white"/>
</clipPath>
</defs>
</svg>
