<svg width="35" height="35" viewBox="0 0 35 35" fill="none" xmlns="http://www.w3.org/2000/svg">
<g clip-path="url(#clip0)">
<path d="M1.8728 10.3028V22.3298C2.27804 21.7535 2.7093 21.2107 3.15172 20.7274C4.72805 18.9987 6.63526 17.664 8.82131 16.7569C9.84742 16.3293 10.9293 16.0021 12.0372 15.7865C13.1191 15.5746 14.2269 15.4668 15.3348 15.4668C15.6583 15.4668 15.9817 15.4742 16.3014 15.4928V10.3028C16.3014 9.48115 15.636 8.81567 14.8143 8.81567H3.35987C2.53828 8.81571 1.8728 9.48119 1.8728 10.3028Z" fill="#7C875D"/>
<path d="M30.2244 29.5721C29.8824 29.3565 29.5738 29.0554 29.2838 28.6427C29.1983 28.5237 28.9976 28.2077 28.7559 27.7913C28.7671 28.2709 28.7559 28.6464 28.7448 28.7914C28.6964 29.4606 28.5217 29.9885 28.2095 30.4123C27.8823 30.8548 27.4139 31.167 26.8153 31.3343L26.7669 31.3492L26.7483 31.3529C26.3134 31.4682 25.8561 31.5054 25.4137 31.5426C24.9787 31.5798 24.566 31.6132 24.1831 31.7099C24.079 31.7359 23.9674 31.7508 23.8597 31.7508C23.3875 31.7508 22.9525 31.4943 22.7257 31.0779C22.5361 30.7321 22.2796 30.4087 22.0045 30.0666C21.577 29.5276 21.1345 28.9736 20.9561 28.2821C20.7368 27.4382 20.9747 26.6128 21.6587 25.8358C21.3427 25.9176 21.0379 25.9585 20.759 25.9585C19.982 25.9585 19.3351 25.6573 18.837 25.0588C18.4652 24.6127 18.231 24.0773 18.0079 23.5605C17.8332 23.159 17.6696 22.7798 17.4539 22.4489C17.1305 21.9545 17.1825 21.3039 17.584 20.8652C17.8517 20.5752 18.0748 20.2257 18.3128 19.8576C18.7961 19.1103 19.3426 18.259 20.3315 17.9839C20.536 17.9281 20.7516 17.8984 20.971 17.8984C21.2126 17.8984 21.458 17.9318 21.7145 18.0025C21.6364 17.8575 21.5732 17.7125 21.5249 17.5675C20.9598 17.3333 20.3798 17.1363 19.7924 16.9764C18.6473 16.6641 17.4762 16.4819 16.3014 16.4187C15.978 16.4001 15.6582 16.3927 15.3347 16.3927C11.1746 16.3927 6.91028 17.9876 3.83941 21.3522C3.17021 22.0883 2.4787 23.014 1.87642 24.0476C0.0175407 27.23 -1.03087 31.4199 1.79463 34.1265C2.34115 34.6507 3.00291 35.0001 3.71672 35.0001H26.9528C29.6258 35.0001 30.5032 32.3828 30.4475 29.6949C30.3694 29.6576 30.2951 29.6167 30.2244 29.5721ZM2.70924 28.7319C2.96205 27.3787 3.49741 26.0848 4.1852 24.8989C4.65363 24.0847 5.20015 23.3151 5.82845 22.6162C7.52375 20.7201 9.76185 19.3669 12.223 18.7274C13.4053 18.4188 14.6805 18.285 15.9073 18.4151C16.0895 18.4337 16.1341 18.6828 15.9668 18.7608C15.9668 18.7608 15.9631 18.7608 15.9631 18.7646C15.6619 18.9059 15.3571 19.036 15.0559 19.1773C14.4611 19.4561 13.87 19.7498 13.2938 20.0658C12.1338 20.6978 11.0222 21.4154 9.99239 22.2407C8.14837 23.7167 6.52371 25.4714 5.24108 27.4567C4.35625 28.8249 3.63129 30.3045 3.12567 31.8548C3.0699 32.0296 2.82081 32.0333 2.76133 31.8586V31.8548C2.44156 30.877 2.52335 29.7245 2.70924 28.7319Z" fill="#7C875D"/>
<path d="M25.581 17.032C25.5847 17.032 25.5885 17.032 25.5885 17.032C25.5996 17.032 25.6033 17.0432 25.607 17.0469L26.7224 19.8427L26.7558 19.9245C26.8153 20.0694 26.9417 20.1699 27.0867 20.1996C27.1127 20.2033 27.1424 20.207 27.1722 20.207C27.2131 20.207 27.254 20.2033 27.2949 20.1921C27.4027 20.1624 27.4956 20.0918 27.5551 19.9914C28.1388 19.0062 28.3879 16.7458 28.4028 16.1918C28.4585 14.4891 27.3284 14.2772 26.1312 14.0541C25.6814 13.9686 25.2166 13.8831 24.7705 13.7158C24.7296 13.7009 24.685 13.6935 24.6441 13.6935C24.6106 13.6935 24.5772 13.6972 24.5474 13.7084C24.4656 13.7307 24.395 13.7827 24.3467 13.8533C24.079 14.2437 23.7444 14.582 23.4247 14.9092C22.8187 15.5301 22.235 16.1212 22.3168 16.9056C22.3354 17.0952 22.3949 17.2922 22.4989 17.5042C22.5696 17.6492 22.6662 17.8016 22.7852 17.9615C22.8484 18.0433 22.9488 18.1697 23.0789 18.3259C23.6551 19.0024 24.8039 20.207 25.6516 20.5899C25.7111 20.616 25.7743 20.6309 25.8337 20.6309C25.8746 20.6309 25.9118 20.6271 25.949 20.616C26.0048 20.6011 26.0568 20.5751 26.0977 20.5416C26.2352 20.4375 26.3059 20.2591 26.265 20.0806L26.2576 20.0583L26.0754 19.2776L25.5586 17.0655C25.5624 17.0506 25.5587 17.0358 25.581 17.032Z" fill="#7C875D"/>
<path d="M33.4624 23.3151C33.0423 23.1924 31.5514 22.8727 30.3952 22.8727C30.094 22.8727 29.819 22.895 29.5885 22.947C29.4992 22.9693 29.4174 23.014 29.3617 23.0809C29.3096 23.1366 29.2724 23.211 29.2539 23.2891C29.2204 23.4527 29.2762 23.62 29.4063 23.7278L30.016 24.2334L31.7894 25.7094C31.8005 25.7168 31.8005 25.7242 31.7968 25.728C31.7931 25.7391 31.7856 25.7465 31.7782 25.7503C31.7782 25.7503 31.7782 25.7503 31.7745 25.7503C31.7708 25.7503 31.767 25.7503 31.7596 25.7465L30.3283 24.8803L29.5959 24.4342L29.1126 24.1405C29.0419 24.0959 28.9601 24.0736 28.8821 24.0736C28.8784 24.0736 28.8784 24.0736 28.8746 24.0736C28.8375 24.0736 28.8003 24.081 28.7631 24.0884C28.5512 24.1479 28.4137 24.3487 28.436 24.568C28.5624 25.7057 29.7297 27.6575 30.0495 28.111C30.1536 28.256 30.2577 28.3824 30.3655 28.494C30.5253 28.6575 30.6926 28.784 30.8711 28.8695C31.0235 28.9438 31.1797 28.9884 31.347 29.0033C31.3953 29.0071 31.4437 29.0107 31.492 29.0107C31.6593 29.0107 31.8377 28.9847 32.0236 28.9327C32.3879 28.8323 32.7597 28.6464 33.1501 28.4531C33.559 28.2486 33.9829 28.0404 34.4401 27.9029C34.6 27.8545 34.7078 27.7058 34.7004 27.5385C34.6818 27.0664 34.7413 26.5942 34.8008 26.1406C34.9495 24.9286 35.0944 23.7872 33.4624 23.3151Z" fill="#7C875D"/>
<path d="M34.7452 17.3443C34.7527 17.177 34.6448 17.0283 34.485 16.9836C34.0314 16.8498 33.6039 16.6416 33.1949 16.4409C32.6187 16.1583 32.0721 15.8906 31.5405 15.8906C31.4104 15.8906 31.284 15.9055 31.1576 15.9426C30.7709 16.0505 30.4215 16.3293 30.098 16.7977C29.782 17.2513 28.6257 19.2106 28.5031 20.3482C28.4883 20.4969 28.544 20.6382 28.6556 20.7348C28.7373 20.8054 28.8414 20.8426 28.9455 20.8426C28.9864 20.8426 29.0236 20.8389 29.0645 20.8278C29.1054 20.8166 29.1426 20.798 29.1798 20.7757L31.8194 19.1548C31.8231 19.151 31.8268 19.151 31.8268 19.151H31.8305C31.8417 19.151 31.8491 19.1659 31.8491 19.1659C31.8566 19.1808 31.8491 19.1882 31.8417 19.1919L29.4697 21.1847C29.3396 21.2962 29.2839 21.4672 29.3248 21.6345C29.3657 21.8018 29.4958 21.9245 29.6594 21.9617C29.8862 22.01 30.1539 22.0323 30.4327 22.0323C30.8863 22.0323 31.3696 21.984 31.7599 21.9282C32.5555 21.8167 33.2322 21.6605 33.4813 21.5899C33.4998 21.5861 33.5184 21.5787 33.5333 21.575C35.1654 21.0917 35.013 19.9504 34.8494 18.7458C34.7898 18.2849 34.7266 17.8165 34.7452 17.3443Z" fill="#7C875D"/>
<path d="M20.9673 18.8314C20.8298 18.8314 20.6997 18.85 20.577 18.8835C19.9264 19.0656 19.5212 19.6976 19.0899 20.3668C18.8408 20.7535 18.5843 21.1513 18.2646 21.5007C18.153 21.6234 18.1382 21.8056 18.2274 21.9469C18.4876 22.3447 18.6735 22.7759 18.8594 23.1998C19.2684 24.1403 19.6587 25.04 20.7592 25.04C20.9637 25.04 21.1905 25.0103 21.4507 24.9434C21.4656 24.9396 21.4842 24.9359 21.5027 24.9285C21.7518 24.8579 22.4136 24.646 23.1497 24.33C23.7371 24.0771 24.529 23.6905 24.964 23.2741C25.0867 23.1551 25.1313 22.9841 25.083 22.8205C25.0309 22.657 24.8934 22.538 24.7261 22.512L21.6663 22.0324C21.6551 22.0324 21.6477 22.0287 21.6477 22.0138C21.6477 22.0138 21.6477 21.9915 21.6626 21.9878C21.6663 21.9878 21.67 21.9878 21.6737 21.9878L24.7707 22.0101H24.7744C24.8153 22.0101 24.8562 22.0064 24.8971 21.9952C25.0383 21.9543 25.1536 21.8465 25.1982 21.7053C25.2466 21.564 25.2206 21.4153 25.1313 21.2963C24.4398 20.3817 22.4359 19.3036 21.934 19.0805C21.5734 18.9095 21.2574 18.8314 20.9673 18.8314Z" fill="#7C875D"/>
<path d="M28.2167 23.0251C28.3245 22.8801 28.4063 22.7165 28.4472 22.5343C28.4769 22.3968 28.4881 22.2518 28.4695 22.1031C28.3914 21.4636 27.8487 20.9989 27.2203 20.9989C27.2166 20.9989 27.2166 20.9989 27.2129 20.9989C27.1646 20.9989 27.1125 21.0027 27.0605 21.0101C26.9266 21.0249 26.8002 21.0621 26.685 21.1179C26.2017 21.3409 25.8968 21.8577 25.9674 22.4154C26.0455 23.0548 26.5883 23.5195 27.2166 23.5195C27.2686 23.5195 27.3207 23.5158 27.3728 23.5084C27.7222 23.4675 28.0196 23.2853 28.2167 23.0251Z" fill="#7C875D"/>
<path d="M23.5398 30.639C23.603 30.758 23.7295 30.8286 23.8596 30.8286C23.8894 30.8286 23.9191 30.8249 23.9526 30.8175C24.4098 30.6985 24.882 30.6613 25.3393 30.6242C25.778 30.587 26.1906 30.5535 26.5513 30.4531C27.358 30.23 27.7484 29.6984 27.8191 28.7318C27.86 28.1815 27.8488 25.9063 27.3692 24.8653C27.2948 24.7054 27.135 24.6088 26.964 24.6088C26.9231 24.6088 26.8822 24.6125 26.8413 24.6274C26.7223 24.6608 26.6256 24.7389 26.5662 24.8505L25.1274 27.5942C25.1237 27.6053 25.1163 27.6053 25.1163 27.6053H25.1125C25.1051 27.6053 25.0939 27.6016 25.0902 27.5942C25.0865 27.5904 25.0828 27.5867 25.0865 27.5718L26.1014 24.646C26.1572 24.4898 26.12 24.3151 26.0047 24.1924C25.9192 24.0995 25.8002 24.0511 25.6813 24.0511C25.6329 24.0511 25.5884 24.0585 25.54 24.0735C24.4545 24.4341 22.7889 25.9844 22.4134 26.3896C21.2571 27.6425 21.9747 28.5422 22.7331 29.494C23.0194 29.8509 23.3131 30.2226 23.5398 30.639Z" fill="#7C875D"/>
<path d="M8.61303 4.85262C8.79891 4.4734 9.33799 4.4734 9.5276 4.8489C9.85476 5.50694 10.2711 6.44754 10.4459 7.30634C12.3196 6.21704 10.7842 2.46209 9.76925 0.435912C9.47555 -0.147777 8.63905 -0.144059 8.35278 0.43963C7.36386 2.45838 5.87303 6.18358 7.72076 7.29147C7.88806 6.43638 8.2933 5.50694 8.61303 4.85262Z" fill="#7C875D"/>
</g>
<defs>
<clipPath id="clip0">
<rect width="35" height="35" fill="white"/>
</clipPath>
</defs>
</svg>
